<svg role="img" viewBox="0 0 47 47" xmlns="http://www.w3.org/2000/svg" id="Rootme--Streamline-Simple-Icons" height="47" width="47">
  <desc>
    Rootme Streamline Icon: https://streamlinehq.com
  </desc>
  <title>Root Me</title>
  <path d="M41.837833333333336 19.381625c0 -0.8773333333333333 -0.05679166666666667 -1.7546666666666666 -0.188 -2.5947916666666666 0 -0.05483333333333333 -0.017625 -0.111625 -0.017625 -0.16841666666666666 -1.1397499999999998 -7.4122916666666665 -6.760166666666667 -13.50075 -14.154833333333332 -15.124208333333332 -0.18604166666666666 -0.8401249999999999 -0.9341249999999999 -1.4746249999999999 -1.8290833333333334 -1.4746249999999999 -1.04575 0 -1.8878333333333333 0.8401249999999999 -1.8878333333333333 1.885875 0 0.8949583333333333 0.6364583333333333 1.6430416666666665 1.4765833333333334 1.8290833333333334v6.891375c0 0.111625 0.05483333333333333 0.22325 0.14883333333333332 0.29766666666666663 0.05679166666666667 0.03720833333333333 0.13120833333333334 0.05679166666666667 0.20562499999999997 0.05679166666666667 0.03720833333333333 0 0.094 0 0.13120833333333334 -0.019583333333333335l2.7632083333333335 -1.04575c0.18604166666666666 0.28004166666666663 0.4660833333333333 0.46804166666666663 0.8029166666666666 0.5600833333333333v3.248875c-1.4002083333333333 1.7194166666666666 -3.13725 3.2684583333333332 -4.985916666666666 4.651041666666666l-2.1091249999999997 -4.893875c0.39166666666666666 -0.26045833333333335 0.6521250000000001 -0.6893333333333332 0.6521250000000001 -1.1945833333333333 0 -0.7833333333333333 -0.6345 -1.4374166666666666 -1.4374166666666666 -1.4374166666666666 -0.7833333333333333 0 -1.4374166666666666 0.6345 -1.4374166666666666 1.4374166666666666 0 0.7852916666666667 0.6345 1.4374166666666666 1.4374166666666666 1.4374166666666666h0.07441666666666666l2.203125 5.097541666666667c-1.2885833333333334 0.9341249999999999 -2.614375 1.7742499999999999 -3.9205833333333326 2.5399583333333333l-6.2745 -1.885875c-0.07441666666666666 -0.017625 -0.14883333333333332 -0.017625 -0.22325 0.019583333333333335l-1.8682499999999997 0.7284999999999999c-0.26045833333333335 -0.35641666666666666 -0.6717083333333334 -0.5796666666666667 -1.1573749999999998 -0.5796666666666667 -0.7833333333333333 0 -1.4374166666666666 0.6345 -1.4374166666666666 1.4374166666666666 0 0.7852916666666667 0.6345 1.4374166666666666 1.4374166666666666 1.4374166666666666 0.7852916666666667 0 1.4374166666666666 -0.6345 1.4374166666666666 -1.4374166666666666 0 -0.05483333333333333 -0.017625 -0.111625 -0.017625 -0.16841666666666666l1.7546666666666666 -0.6893333333333332 5.471583333333333 1.6430416666666665c-4.668666666666666 2.614375 -8.851666666666665 4.1262083333333335 -9.542958333333333 4.369041666666666l-0.33487500000000003 0.111625a1.8026458333333333 1.8026458333333333 0 0 0 -1.0829583333333335 -0.3544583333333333h-0.05679166666666667c-0.8773333333333333 -2.0719166666666666 -1.3257916666666667 -4.331833333333334 -1.3257916666666667 -6.59175 0 -1.1201666666666665 0.111625 -2.2227083333333333 0.31725 -3.286083333333333H15.059583333333334c0.16841666666666666 0.616875 0.7089166666666666 1.063375 1.3825833333333333 1.063375 0.7833333333333333 0 1.4374166666666666 -0.6345 1.4374166666666666 -1.4374166666666666 0 -0.7833333333333333 -0.6345 -1.4374166666666666 -1.4374166666666666 -1.4374166666666666 -0.6736666666666666 0 -1.2141666666666666 0.44845833333333335 -1.3825833333333333 1.063375h-8.029166666666665c1.5118333333333334 -6.143291666666666 6.3665416666666665 -11.052833333333334 12.641041666666666 -12.509833333333333 0.3368333333333333 0.5405 0.9341249999999999 0.9145416666666667 1.6058333333333332 0.9145416666666667 1.04575 0 1.885875 -0.8401249999999999 1.885875 -1.885875S22.323041666666665 0 21.277291666666667 0c-0.9145416666666667 0 -1.6606666666666665 0.6540833333333333 -1.8486666666666665 1.4942083333333334 -8.234791666666666 1.8662916666666665 -14.266458333333333 9.280541666666666 -14.266458333333333 17.869791666666664 0 2.4459583333333335 0.48566666666666664 4.891916666666667 1.4393749999999998 7.13225 -0.3544583333333333 0.3368333333333333 -0.5600833333333333 0.8224999999999999 -0.5600833333333333 1.345375 0 0.8401249999999999 0.5405 1.5314166666666666 1.2885833333333334 1.791875v7.357458333333334c0 0.13120833333333334 0.03720833333333333 0.2624166666666667 0.111625 0.37404166666666666l0.41124999999999995 0.28004166666666663 5.583208333333333 3.9401666666666664v4.705875c0 0.39166666666666666 0.31725 0.7089166666666666 0.7089166666666666 0.7089166666666666h18.672708333333333c0.39166666666666666 0 0.7089166666666666 -0.31725 0.7089166666666666 -0.7089166666666666v-4.705875l5.602791666666667 -3.9401666666666664 0.41124999999999995 -0.299625a0.6730791666666667 0.6730791666666667 0 0 0 0.111625 -0.3720833333333333v-7.41425c0.6912916666666666 -0.28004166666666663 1.1769583333333333 -0.95175 1.1769583333333333 -1.7370416666666666 0 -0.48566666666666664 -0.188 -0.9321666666666666 -0.48566666666666664 -1.269 0.9889583333333333 -2.2227083333333333 1.4942083333333334 -4.6862916666666665 1.4942083333333334 -7.1714166666666666Zm-2.7083749999999998 6.59175h-0.16841666666666666c-1.04575 0 -1.885875 0.8401249999999999 -1.885875 1.885875 0 0.8029166666666666 0.50525 1.4942083333333334 1.2317916666666666 1.7566249999999999v6.871791666666666l-5.880875 4.145791666666667c-0.188 0.12925 -0.299625 0.3544583333333333 -0.299625 0.5777083333333333v3.9597499999999997c0 0.22325 -0.18604166666666666 0.4092916666666666 -0.41124999999999995 0.4092916666666666H29.531666666666666c-0.22520833333333334 0 -0.41124999999999995 -0.18604166666666666 -0.41124999999999995 -0.4092916666666666v-1.4197916666666666c0 -0.37404166666666666 -0.26045833333333335 -0.7089166666666666 -0.6345 -0.7480833333333333 -0.428875 -0.03720833333333333 -0.7852916666666667 0.299625 -0.7852916666666667 0.7108749999999999v1.4746249999999999c0 0.22520833333333334 -0.18604166666666666 0.41124999999999995 -0.4092916666666666 0.41124999999999995h-2.6711666666666667a0.41516666666666663 0.41516666666666663 0 0 1 -0.41124999999999995 -0.41124999999999995v-2.1855c0 -0.3720833333333333 -0.26045833333333335 -0.7089166666666666 -0.6345 -0.7461249999999999 -0.428875 -0.03720833333333333 -0.7833333333333333 0.299625 -0.7833333333333333 0.7089166666666666v2.2422916666666666c0 0.22325 -0.188 0.4092916666666666 -0.41124999999999995 0.4092916666666666h-2.6711666666666667a0.4130125 0.4130125 0 0 1 -0.4092916666666666 -0.4092916666666666v-1.4569999999999999c0 -0.37404166666666666 -0.2624166666666667 -0.7089166666666666 -0.6364583333333333 -0.7480833333333333 -0.428875 -0.03720833333333333 -0.7833333333333333 0.299625 -0.7833333333333333 0.7108749999999999v1.4746249999999999c0 0.22520833333333334 -0.18604166666666666 0.41124999999999995 -0.41124999999999995 0.41124999999999995H15.284791666666665c-0.22520833333333334 0 -0.41124999999999995 -0.18604166666666666 -0.41124999999999995 -0.41124999999999995v-3.957791666666666c0 -0.22520833333333334 -0.111625 -0.44845833333333335 -0.299625 -0.5796666666666667l-5.86325 -4.145791666666667v-6.946208333333334a1.878825 1.878825 0 0 0 1.1025416666666665 -1.7174583333333333c0 -0.111625 -0.019583333333333335 -0.22325 -0.03720833333333333 -0.3368333333333333 0.7461249999999999 -0.26045833333333335 6.440958333333334 -2.297125 12.043750000000001 -5.788833333333333 7.580708333333333 -4.7235 11.783291666666667 -10.083458333333333 12.267 -15.590291666666667 3.2684583333333332 2.632 5.528375 6.440958333333334 6.182458333333333 10.717958333333332 -0.094 9.354958333333332 -16.395166666666665 15.124208333333332 -16.563583333333334 15.181 -0.03720833333333333 0.017625 -0.13120833333333334 0.03720833333333333 -0.20562499999999997 0.07441666666666666 -0.20562499999999997 -0.03720833333333333 -0.41124999999999995 -0.07441666666666666 -0.6345 -0.111625 -0.14883333333333332 -0.03720833333333333 -0.31725 -0.05679166666666667 -0.46804166666666663 -0.094 -0.24283333333333332 -0.03720833333333333 -0.4837083333333333 -0.094 -0.7265416666666666 -0.14883333333333332 -0.03916666666666667 -0.019583333333333335 -0.094 -0.019583333333333335 -0.13120833333333334 -0.019583333333333335 -0.094 -0.017625 -0.188 -0.03720833333333333 -0.28004166666666663 -0.05483333333333333 -0.111625 -0.019583333333333335 -0.22520833333333334 -0.05679166666666667 -0.3368333333333333 -0.076375 -0.26045833333333335 -0.05483333333333333 -0.522875 -0.111625 -0.7657083333333333 -0.18604166666666666 -0.4660833333333333 -0.111625 -0.9145416666666667 -0.24283333333333332 -1.3629999999999998 -0.3544583333333333 -0.428875 -0.13120833333333334 -0.8773333333333333 -0.24283333333333332 -1.2885833333333334 -0.37404166666666666H17.468333333333334c-0.31725 -0.09204166666666666 -0.616875 -0.18604166666666666 -0.9145416666666667 -0.29766666666666663a1.9575500000000001 1.9575500000000001 0 0 0 -0.299625 -0.094c-0.14883333333333332 -0.05679166666666667 -0.28004166666666663 -0.094 -0.4092916666666666 -0.13120833333333334 -0.24283333333333332 -0.07441666666666666 -0.46804166666666663 -0.14883333333333332 -0.6736666666666666 -0.24283333333333332h-0.017625a11.707895833333334 11.707895833333334 0 0 1 -0.8969166666666667 -0.33487500000000003c-0.28004166666666663 -0.11358333333333334 -0.522875 -0.20562499999999997 -0.7089166666666666 -0.28004166666666663 -0.188 -0.094 -0.3544583333333333 -0.15079166666666666 -0.44845833333333335 -0.20562499999999997 -0.111625 -0.05679166666666667 -0.16841666666666666 -0.07441666666666666 -0.16841666666666666 -0.07441666666666666s0.03720833333333333 0.05483333333333333 0.111625 0.12925c0.07441666666666666 0.094 0.188 0.22520833333333334 0.3544583333333333 0.37404166666666666 0.15079166666666666 0.14883333333333332 0.35641666666666666 0.3368333333333333 0.59925 0.522875 0.24283333333333332 0.18604166666666666 0.522875 0.39166666666666666 0.8205416666666666 0.5972916666666667h0.019583333333333335c-0.11358333333333334 0.37404166666666666 -0.188 0.7852916666666667 -0.188 1.1945833333333333 0 2.1482916666666667 1.7566249999999999 3.9029583333333333 3.9029583333333333 3.9029583333333333 1.6626249999999998 0 3.080458333333333 -1.04575 3.6425 -2.5203749999999996 0.18604166666666666 0.019583333333333335 0.39166666666666666 0.03720833333333333 0.5777083333333333 0.05679166666666667 0.3368333333333333 0.017625 0.6540833333333333 0.017625 0.95175 0.017625 0.019583333333333335 0 0.03720833333333333 0.019583333333333335 0.05679166666666667 0.019583333333333335l3.1548749999999997 3.2116666666666664c0.8029166666666666 0.8029166666666666 2.0542916666666664 0.9341249999999999 2.9884166666666667 0.31725l4.929125 -2.7632083333333335c0.43083333333333335 -0.28004166666666663 0.7108749999999999 -0.7657083333333333 0.7108749999999999 -1.2885833333333334v-5.677208333333333c1.9035 -1.5118333333333334 3.622916666666667 -3.3056666666666663 4.743083333333334 -5.340375 -0.20562499999999997 1.4746249999999999 -0.5972916666666667 2.874833333333333 -1.1769583333333333 4.200625Zm-15.273041666666666 11.495416666666667 -0.003916666666666666 -0.003916666666666666c-0.003916666666666666 -0.003916666666666666 -0.007833333333333333 -0.005875 -0.015666666666666666 -0.005875a0.08557916666666666 0.08557916666666666 0 0 0 -0.025458333333333333 -0.017625l-0.005875 -0.003916666666666666a0.05483333333333333 0.05483333333333333 0 0 1 -0.025458333333333333 -0.017625c-0.019583333333333335 0 -0.03720833333333333 -0.017625 -0.05679166666666667 -0.017625 -0.017625 0 -0.03720833333333333 -0.019583333333333335 -0.03720833333333333 -0.019583333333333335 -0.017625 0 -0.03720833333333333 0 -0.05483333333333333 -0.017625h-0.22520833333333334c-0.017625 0 -0.03720833333333333 0 -0.05483333333333333 0.017625 -0.019583333333333335 0 -0.03720833333333333 0.019583333333333335 -0.03720833333333333 0.019583333333333335 -0.019583333333333335 0 -0.03720833333333333 0.017625 -0.05679166666666667 0.017625 -0.017625 0 -0.03720833333333333 0.019583333333333335 -0.05679166666666667 0.03916666666666667 -0.017625 0 -0.017625 0.017625 -0.03720833333333333 0.017625l-0.07441666666666666 0.07441666666666666 -1.5118333333333334 1.885875c-0.18604166666666666 0.24283333333333332 -0.14883333333333332 0.5796666666666667 0.094 0.7657083333333333 0.09204166666666666 0.07441666666666666 0.22325 0.111625 0.33487500000000003 0.111625 0.16841666666666666 0 0.31725 -0.07441666666666666 0.428875 -0.20366666666666666l0.019583333333333335 -0.019583333333333335c0.5600833333333333 -0.6912916666666666 1.6058333333333332 -0.6912916666666666 2.1482916666666667 0l0.017625 0.019583333333333335c0.111625 0.12925 0.2624166666666667 0.20366666666666666 0.428875 0.20366666666666666 0.11358333333333334 0 0.24283333333333332 -0.03720833333333333 0.3368333333333333 -0.111625 0.24283333333333332 -0.18604166666666666 0.28004166666666663 -0.5405 0.094 -0.7657083333333333l-1.5314166666666666 -1.8662916666666665c-0.019583333333333335 -0.019583333333333335 -0.03720833333333333 -0.03720833333333333 -0.03720833333333333 -0.05679166666666667 -0.019583333333333335 -0.017625 -0.019583333333333335 -0.017625 -0.03720833333333333 -0.03720833333333333a0.02487083333333333 0.02487083333333333 0 0 1 -0.017625 -0.007833333333333333Zm-3.176416666666667 -4.435625c-0.07441666666666666 0.14883333333333332 -0.18604166666666666 0.29766666666666663 -0.28004166666666663 0.428875 -0.44845833333333335 0.522875 -1.1201666666666665 0.8597083333333333 -1.8662916666666665 0.8597083333333333 -0.7480833333333333 0 -1.4197916666666666 -0.3368333333333333 -1.8682499999999997 -0.8597083333333333 -0.37404166666666666 -0.428875 -0.5777083333333333 -0.9889583333333333 -0.5777083333333333 -1.58625 0 -0.15079166666666666 0.017625 -0.282 0.03720833333333333 -0.43083333333333335 0.29766666666666663 0.14883333333333332 0.6149166666666667 0.299625 0.9321666666666666 0.44845833333333335 0.43083333333333335 0.18604166666666666 0.8792916666666667 0.37404166666666666 1.345375 0.522875 0.4660833333333333 0.16841666666666666 0.95175 0.299625 1.4374166666666666 0.428875 0.28004166666666663 0.07441666666666666 0.5600833333333333 0.13120833333333334 0.8401249999999999 0.188Zm-12.735041666666666 -4.277c-0.22325 0 -0.428875 -0.094 -0.5972916666666667 -0.22325 -0.18604166666666666 -0.16841666666666666 -0.31725 -0.41124999999999995 -0.31725 -0.6736666666666666 0 -0.111625 0.019583333333333335 -0.22325 0.05679166666666667 -0.31725 0.12925 -0.33487500000000003 0.4660833333333333 -0.5777083333333333 0.8401249999999999 -0.5777083333333333 0.16645833333333335 0 0.31725 0.05483333333333333 0.44845833333333335 0.13120833333333334 0.26045833333333335 0.14883333333333332 0.4465 0.4465 0.4465 0.7833333333333333 0 0.16841666666666666 -0.05483333333333333 0.31725 -0.12925 0.44845833333333335 -0.13120833333333334 0.26045833333333335 -0.41124999999999995 0.428875 -0.7480833333333333 0.428875Zm31.744583333333335 -0.3544583333333333c-0.16841666666666666 0.20562499999999997 -0.428875 0.3544583333333333 -0.7089166666666666 0.3544583333333333 -0.2624166666666667 0 -0.48566666666666664 -0.111625 -0.6540833333333333 -0.28004166666666663 -0.14883333333333332 -0.16841666666666666 -0.24283333333333332 -0.37404166666666666 -0.24283333333333332 -0.616875 0 -0.39166666666666666 0.24283333333333332 -0.7265416666666666 0.5972916666666667 -0.8401249999999999 0.094 -0.03720833333333333 0.20562499999999997 -0.05483333333333333 0.31725 -0.05483333333333333 0.428875 0 0.8029166666666666 0.31725 0.8969166666666667 0.7284999999999999 0.017625 0.05483333333333333 0.017625 0.111625 0.017625 0.18604166666666666 -0.03720833333333333 0.18604166666666666 -0.111625 0.37404166666666666 -0.22325 0.522875Zm-11.446458333333332 -19.326791666666665c0 0.05679166666666667 0.017625 0.094 0.017625 0.13120833333333334l-2.2775416666666666 0.85775V3.714958333333333c0.5600833333333333 -0.09204166666666666 1.028125 -0.428875 1.2885833333333334 -0.8949583333333333 1.9975 0.44845833333333335 3.86575 1.251375 5.528375 2.3519583333333336 -0.019583333333333335 2.7632083333333335 -1.0849166666666668 5.303166666666667 -2.7651666666666666 7.600291666666666V10.4575c0.616875 -0.16841666666666666 1.0653333333333335 -0.7108749999999999 1.0653333333333335 -1.3825833333333333 0 -0.7833333333333333 -0.6345 -1.4374166666666666 -1.4374166666666666 -1.4374166666666666 -0.7852916666666667 0.017625 -1.4197916666666666 0.6540833333333333 -1.4197916666666666 1.4374166666666666Zm-6.8149999999999995 -3.3977083333333336c-0.7657083333333333 0 -1.4021666666666666 0.5972916666666667 -1.4393749999999998 1.3629999999999998l-2.85525 1.04575c-0.15079166666666666 0.05483333333333333 -0.2624166666666667 0.18604166666666666 -0.2624166666666667 0.3544583333333333v1.8114583333333334H14.573916666666667c-0.16841666666666666 -0.616875 -0.7089166666666666 -1.0653333333333335 -1.3806249999999998 -1.0653333333333335 -0.7852916666666667 0 -1.4393749999999998 0.6345 -1.4393749999999998 1.4393749999999998 0 0.7833333333333333 0.6364583333333333 1.4374166666666666 1.4393749999999998 1.4374166666666666 0.6717083333333334 0 1.2122083333333333 -0.44845833333333335 1.3806249999999998 -1.0653333333333335h2.6711666666666667c0.20562499999999997 0 0.3720833333333333 -0.16841666666666666 0.3720833333333333 -0.3720833333333333v-1.9250416666666665l2.522333333333333 -0.9321666666666666c0.24283333333333332 0.4660833333333333 0.7284999999999999 0.7833333333333333 1.269 0.7833333333333333 0.7852916666666667 0 1.4374166666666666 -0.6345 1.4374166666666666 -1.4374166666666666 0.019583333333333335 -0.7852916666666667 -0.6345 -1.4374166666666666 -1.4178333333333333 -1.4374166666666666Zm-0.8029166666666666 -4.388625a0.9018125 0.9018125 0 0 1 0.6717083333333334 -0.299625c0.5032916666666667 0 0.9145416666666667 0.41124999999999995 0.9145416666666667 0.9165 0 0.5032916666666667 -0.41124999999999995 0.9145416666666667 -0.9145416666666667 0.9145416666666667 -0.188 0 -0.3544583333333333 -0.05679166666666667 -0.50525 -0.14883333333333332 -0.24283333333333332 -0.16841666666666666 -0.4092916666666666 -0.44845833333333335 -0.4092916666666666 -0.7480833333333333 0 -0.26045833333333335 0.09204166666666666 -0.48566666666666664 0.24283333333333332 -0.6345Zm4.106625 0.5972916666666667c0 -0.5032916666666667 0.41124999999999995 -0.9145416666666667 0.9165 -0.9145416666666667 0.26045833333333335 0 0.4837083333333333 0.111625 0.6521250000000001 0.28004166666666663 0.15079166666666666 0.16841666666666666 0.24283333333333332 0.37404166666666666 0.24283333333333332 0.616875 0 0.29766666666666663 -0.14883333333333332 0.5777083333333333 -0.39166666666666666 0.7461249999999999 -0.14883333333333332 0.111625 -0.31725 0.16841666666666666 -0.522875 0.16841666666666666 -0.48566666666666664 0.017625 -0.8969166666666667 -0.39166666666666666 -0.8969166666666667 -0.8969166666666667Z" fill="#000000" stroke-width="1.9583"></path>
</svg>